<svg xmlns="http://www.w3.org/2000/svg" aria-hidden="true" style="width:0;height:0;position:absolute;overflow:hidden"><defs><symbol id="film" viewBox="0 0 32 32"><path stroke-linecap="round" stroke-linejoin="round" stroke-width="2" d="M26.427 2.667H5.574a2.907 2.907 0 0 0-2.907 2.907v20.853a2.907 2.907 0 0 0 2.907 2.907h20.853a2.907 2.907 0 0 0 2.907-2.907V5.574a2.907 2.907 0 0 0-2.907-2.907zm-17.094 0v26.667M22.667 2.667v26.667M2.667 16h26.667M2.667 9.334h6.667M2.667 22.666h6.667m13.333 0h6.667M22.667 9.334h6.667"/></symbol><symbol id="search" viewBox="0 0 32 32"><path stroke-linecap="round" stroke-linejoin="round" stroke-width="2.286" d="M14.667 25.333c5.891 0 10.667-4.776 10.667-10.667S20.558 3.999 14.667 3.999 4 8.775 4 14.666s4.776 10.667 10.667 10.667zM27.999 28l-5.8-5.8"/></symbol><symbol id="heart" viewBox="0 0 14 13"><path d="m7 12.88-.98-.98C2.38 8.68 0 6.51 0 3.85 0 1.68 1.68 0 3.85 0 5.04 0 6.23.56 7 1.47 7.77.56 8.96 0 10.15 0 12.32 0 14 1.68 14 3.85c0 2.66-2.38 4.83-6.02 8.05l-.98.98Z"/></symbol></defs></svg>