<svg aria-hidden="true" style="width:0;height:0;position:absolute;overflow:hidden" xmlns="http://www.w3.org/2000/svg"><defs><symbol id="close-btn" viewBox="0 0 32 32"><path d="M22.857 14.476V12.19h2.286V9.904h2.286V7.618h2.286V5.332h2.286V2.284h-2.286V-.002h-3.048v2.286h-2.286V4.57h-2.286v2.286h-2.286v2.286h-2.286v2.286h-3.048V9.142h-2.286V6.856H9.903V4.57H7.617V2.284H5.331V-.002H2.283v2.286H-.003v3.048h2.286v2.286h2.286v2.286h2.286v2.286h2.286v2.286h2.286v3.048H9.141v2.286H6.855v2.286H4.569v2.286H2.283v2.286H-.003v3.048h2.286v2.286h3.048v-2.286h2.286V27.43h2.286v-2.286h2.286v-2.286h2.286v-2.286h3.048v2.286h2.286v2.286h2.286v2.286h2.286v2.286h2.286v2.286h3.048v-2.286h2.286v-3.048h-2.286v-2.286h-2.286v-2.286h-2.286V19.81h-2.286v-2.286h-2.286v-3.048z"/></symbol></defs></svg>