<svg aria-hidden="true" style="width:0;height:0;position:absolute;overflow:hidden" xmlns="http://www.w3.org/2000/svg"><defs><symbol id="header-autorization" viewBox="0 0 32 32"><path d="M16 2c3.243 0 5.881 2.615 5.881 5.83S19.243 13.66 16 13.66c-3.243 0-5.881-2.615-5.881-5.83S12.757 2 16 2zm0-2c-4.353 0-7.881 3.506-7.881 7.83s3.529 7.83 7.881 7.83 7.881-3.506 7.881-7.83S20.352 0 16 0zm4.935 19.444c.593.012 5.135.25 5.135 4.596V30H5.93v-5.96c0-4.268 4.289-4.578 5.116-4.596h9.889zm.019-2h-9.907s-7.116.079-7.116 6.596V32h24.14v-7.96c0-6.478-7.116-6.596-7.116-6.596z"/></symbol><symbol id="icon-autorization" viewBox="0 0 32 32"><path d="M16 .001C7.164.001 0 7.164 0 16s7.164 15.999 16 15.999c8.837 0 16-7.163 16-15.999S24.837.001 16 .001zm0 4.784a5.292 5.292 0 1 1 .001 10.585A5.292 5.292 0 0 1 16 4.785zm-.004 23.031a11.738 11.738 0 0 1-7.646-2.82 2.255 2.255 0 0 1-.791-1.714c0-2.964 2.399-5.336 5.363-5.336h6.158a5.33 5.33 0 0 1 5.355 5.336c0 .659-.288 1.285-.791 1.713a11.74 11.74 0 0 1-7.647 2.82z"/></symbol><symbol id="icon-autorization-check" viewBox="0 0 32 32"><path d="M16 0C7.164 0 0 7.164 0 16s7.164 16 16 16 16-7.164 16-16S24.836 0 16 0zm-2.48 23.383L6.158 16.02l2.828-2.828 4.533 4.535 9.617-9.617 2.828 2.828L13.52 23.383z"/></symbol><symbol id="card-btn-close" viewBox="0 0 32 32"><path stroke-width="2.133" d="m8.533 8.533 14.933 14.933m-14.933.001L23.466 8.534"/></symbol><symbol id="arrow-left" viewBox="0 0 32 32"><path stroke-linejoin="round" stroke-linecap="round" stroke-width="2.667" d="M25.333 16H6.666M16 25.333 6.667 16 16 6.667"/></symbol><symbol id="arrow-right" viewBox="0 0 32 32"><path stroke-linejoin="round" stroke-linecap="round" stroke-width="2.667" d="M6.667 16h18.667M16 25.333 25.333 16 16 6.667"/></symbol></defs></svg>