<svg aria-hidden="true" style="width:0;height:0;position:absolute;overflow:hidden" xmlns="http://www.w3.org/2000/svg"><defs><symbol id="icon-film" viewBox="0 0 32 32"><path fill="none" stroke="#818181" style="stroke:var(--color1,#818181)" stroke-linejoin="round" stroke-linecap="round" stroke-width="2.667" d="M26.427 2.667H5.574a2.907 2.907 0 0 0-2.907 2.907v20.853a2.907 2.907 0 0 0 2.907 2.907h20.853a2.907 2.907 0 0 0 2.907-2.907V5.574a2.907 2.907 0 0 0-2.907-2.907zM9.333 2.667v26.667M22.667 2.667v26.667M2.667 16h26.667M2.667 9.333h6.667M2.667 22.667h6.667M22.667 22.667h6.667M22.667 9.333h6.667"/></symbol><symbol id="icon-search-2" viewBox="0 0 32 32"><path fill="none" stroke="#fff" style="stroke:var(--color2,#fff)" stroke-linejoin="round" stroke-linecap="round" stroke-width="2.667" d="M14.667 25.333c5.891 0 10.667-4.776 10.667-10.667S20.558 3.999 14.667 3.999 4 8.775 4 14.666s4.776 10.667 10.667 10.667zM28 28.001l-5.8-5.8"/></symbol><symbol id="icon-user" viewBox="0 0 32 32"><path d="M31.11 28.336c-.201-.133-3.848-2.525-9.273-3.699 1.99-2.521 3.268-5.912 3.811-8.169.754-3.128.461-9.248-2.543-13.062C21.349 1.177 18.892 0 16 0s-5.349 1.178-7.104 3.406C5.892 7.219 5.6 13.339 6.353 16.467c.543 2.257 1.82 5.648 3.811 8.169-5.425 1.174-9.072 3.566-9.272 3.699A1.999 1.999 0 0 0 2 32h28a2.001 2.001 0 0 0 1.11-3.664zm-10.843-4.938-.326.414c-2.385 2.74-5.495 2.74-7.879 0l-.327-.414c-2.785-3.529-4.167-8.197-3.572-12.65C8.708 6.469 11.16 2 16 2s7.293 4.47 7.838 8.749c.593 4.455-.784 9.118-3.571 12.649zM2 30c.138-.092 3.526-2.314 8.586-3.408l2.484-.537c.887.582 1.86.945 2.93.945 1.071 0 2.043-.363 2.93-.945l2.484.537C26.434 27.678 29.81 29.875 30 30H2z"/></symbol><symbol id="icon-tux" viewBox="0 0 32 32"><path d="M17.739 23.029c-2.561 1.191-4.942 1.179-6.542 1.063-1.908-.138-3.442-.66-4.117-1.117a.909.909 0 1 0-1.019 1.505c1.084.734 3.002 1.28 5.005 1.424.34.024.712.04 1.114.04 1.743 0 3.957-.166 6.326-1.268a.91.91 0 0 0-.767-1.648zm10.103-1.347c.087-7.896.899-22.819-14.218-21.613C-1.301 1.27 2.656 17.037 2.434 22.317 2.237 25.11 1.31 28.525 0 32h4.034c.415-1.473.72-2.929.851-4.317.243.17.503.334.781.491.452.266.84.62 1.251.995.961.876 2.05 1.868 4.179 1.992.143.008.287.012.427.012 2.153 0 3.625-.942 4.809-1.699.567-.363 1.057-.676 1.518-.827 1.31-.41 2.454-1.072 3.309-1.914a5.64 5.64 0 0 0 .374-.405c.476 1.746 1.129 3.711 1.853 5.672H32c-2.068-3.195-4.201-6.324-4.158-10.318zM3.878 17.386v-.001c-.148-2.577 1.085-4.745 2.754-4.842s3.142 1.913 3.291 4.49v.001c.008.139.011.276.012.413a6.46 6.46 0 0 0-1.434.551l-.005-.057v-.001c-.143-1.463-.924-2.567-1.745-2.467s-1.371 1.367-1.228 2.83v.001c.062.638.246 1.207.501 1.639-.064.05-.243.182-.45.333l-.572.42c-.621-.815-1.047-1.987-1.123-3.309zm16.911 6.37c-.059 1.362-1.841 2.643-3.487 3.158l-.009.003c-.684.222-1.295.613-1.941 1.026-1.085.695-2.208 1.413-3.829 1.413-.106 0-.215-.003-.323-.009-1.485-.087-2.179-.72-3.059-1.521-.464-.423-.943-.86-1.562-1.223l-.013-.008c-1.335-.753-2.163-1.69-2.216-2.506-.026-.406.154-.757.537-1.044.832-.624 1.39-1.032 1.759-1.302.41-.3.533-.39.625-.477.066-.062.136-.131.213-.205.764-.743 2.043-1.986 4.005-1.986 1.2 0 2.528.462 3.943 1.372.666.434 1.246.634 1.981.887.505.174 1.077.372 1.843.7l.012.005c.715.294 1.559.83 1.521 1.717zm-.394-3.2a5.876 5.876 0 0 0-.43-.196 25.213 25.213 0 0 0-1.704-.656 4.168 4.168 0 0 0 .426-1.789v-.001c.035-1.637-.79-2.966-1.844-2.968s-1.936 1.322-1.971 2.959v.001l-.001.16a9.182 9.182 0 0 0-1.911-.649 10.966 10.966 0 0 1-.008-.185v-.002c-.061-2.982 1.769-5.45 4.086-5.513s4.245 2.303 4.305 5.285v.002c.027 1.348-.333 2.59-.949 3.552z"/></symbol><symbol id="eye" viewBox="0 0 32 32"><path d="M16 6C9.021 6 2.972 10.064 0 16c2.972 5.936 9.021 10 16 10s13.027-4.064 16-10c-2.972-5.936-9.021-10-16-10zm7.889 5.303A15.212 15.212 0 0 1 28.559 16a15.223 15.223 0 0 1-4.67 4.697C21.527 22.204 18.799 23 16 23s-5.527-.796-7.889-2.303A15.212 15.212 0 0 1 3.441 16a15.223 15.223 0 0 1 5.041-4.925 8 8 0 1 0 15.036 0c.124.074.248.15.371.228zM16 13a3 3 0 1 1-6 0 3 3 0 0 1 6 0z"/></symbol><symbol id="eye-blocked" viewBox="0 0 32 32"><path d="M29.561.439a1.5 1.5 0 0 0-2.121 0l-6.318 6.318A17.626 17.626 0 0 0 16 6C9.021 6 2.972 10.064 0 16a18.323 18.323 0 0 0 5.407 6.472L.439 27.44a1.5 1.5 0 1 0 2.122 2.121l27-27a1.5 1.5 0 0 0 0-2.121zM13 10a3 3 0 0 1 2.841 2.037l-3.804 3.804A3 3 0 0 1 13 10zm-9.559 6a15.223 15.223 0 0 1 5.041-4.925A7.985 7.985 0 0 0 8 13.812c0 1.715.54 3.304 1.459 4.607l-1.904 1.904A15.219 15.219 0 0 1 3.441 16zM24 13.813c0-.849-.133-1.667-.378-2.434L13.566 21.435a8 8 0 0 0 10.435-7.622z"/><path d="M25.938 9.062 23.77 11.23l.118.074a15.212 15.212 0 0 1 4.67 4.697 15.223 15.223 0 0 1-4.67 4.697 14.642 14.642 0 0 1-11.45 1.864l-2.403 2.403a17.587 17.587 0 0 0 5.964 1.036c6.978 0 13.027-4.064 16-10a18.292 18.292 0 0 0-6.062-6.938z"/></symbol></defs></svg>