<svg aria-hidden="true" style="position: absolute; width: 0; height: 0; overflow: hidden;" version="1.1" xmlns="http://www.w3.org/2000/svg" xmlns:xlink="http://www.w3.org/1999/xlink">
<defs>
<symbol id="header-autorization" viewBox="0 0 32 32">
<path d="M16 2c3.243 0 5.881 2.615 5.881 5.83s-2.638 5.83-5.881 5.83c-3.243 0-5.881-2.615-5.881-5.83s2.638-5.83 5.881-5.83zM16 0c-4.353 0-7.881 3.506-7.881 7.83s3.529 7.83 7.881 7.83 7.881-3.506 7.881-7.83-3.529-7.83-7.881-7.83zM20.935 19.444c0.593 0.012 5.135 0.25 5.135 4.596v5.96h-20.14v-5.96c0-4.268 4.289-4.578 5.116-4.596h9.889zM20.954 17.444h-9.907s-7.116 0.079-7.116 6.596v7.96h24.14v-7.96c0-6.478-7.116-6.596-7.116-6.596z"></path>
</symbol>
<symbol id="icon-autorization" viewBox="0 0 32 32" >
<path d="M16 0.001c-8.836 0-16 7.163-16 15.999s7.164 15.999 16 15.999c8.837 0 16-7.163 16-15.999s-7.163-15.999-16-15.999zM16 4.785c2.924 0 5.293 2.37 5.293 5.292s-2.369 5.292-5.293 5.292c-2.922 0-5.291-2.369-5.291-5.292s2.369-5.292 5.291-5.292zM15.996 27.816c-2.916 0-5.587-1.062-7.646-2.82-0.502-0.428-0.791-1.056-0.791-1.714 0-2.964 2.399-5.336 5.363-5.336h6.158c2.965 0 5.355 2.372 5.355 5.336 0 0.659-0.288 1.285-0.791 1.713-2.059 1.758-4.731 2.82-7.647 2.82z"></path>
</symbol>
<symbol id="icon-autorization-check" viewBox="0 0 32 32" >
<path  d="M16,0C7.164,0,0,7.164,0,16s7.164,16,16,16s16-7.164,16-16S24.836,0,16,0z M13.52,23.383L6.158,16.02l2.828-2.828l4.533,4.535l9.617-9.617l2.828,2.828L13.52,23.383z"/>
</symbol>
</defs>
</svg>